<svg width="53" height="48" viewBox="0 0 53 48" fill="none" xmlns="http://www.w3.org/2000/svg">
<path d="M4.48474 7.34483C4.5488 7.85734 15.6187 7.77373 16.9704 7.77373C19.5836 7.77373 22.1967 7.77373 24.8098 7.77373C26.7226 7.77373 28.5603 7.18241 30.4331 7.13038C32.2638 7.07953 34.0992 6.91593 35.9611 6.91593C37.507 6.91593 39.4128 7.07686 40.8934 6.65383C43.0968 6.02431 46.087 5.84369 48.3396 5.84369C49.8982 5.84369 48.6613 7.38398 48.6613 8.54813C48.6613 9.82688 48.6613 11.1056 48.6613 12.3844C48.6613 12.875 48.8139 11.7512 48.8638 11.5266C48.9864 10.9751 49.0422 10.4532 49.1974 9.8944C49.2826 9.58763 49.2309 8.06511 49.3165 8.53622C49.4509 9.27499 49.7335 10.1357 49.7335 10.8832C49.7335 11.8006 49.7335 14.5527 49.7335 13.6353C49.7335 12.0031 49.7335 10.3709 49.7335 8.73875C49.7335 8.26914 49.6436 7.69594 49.7454 7.23761C49.8515 6.76015 49.9585 9.18552 49.8407 9.70377C49.6374 10.5987 49.5191 11.4708 49.5191 12.3844C49.5191 13.1711 49.7423 13.6339 48.8757 13.7783" stroke="#CFDDD9" stroke-width="3" stroke-linecap="round"/>
<path d="M49.0902 13.3494C49.0902 14.3055 49.4689 15.3718 49.7216 16.2564C50.0216 17.3063 49.948 18.934 49.948 19.9973C49.948 22.3129 49.7335 24.7949 49.7335 27.1814C49.7335 31.7598 50.1624 36.4157 50.1624 41.0133" stroke="#CFDDD9" stroke-width="3" stroke-linecap="round"/>
<path d="M2.98358 44.659C7.11676 44.659 11.0937 43.8012 15.2072 43.8012C17.326 43.8012 19.4074 43.3723 21.5215 43.3723C23.5709 43.3723 25.6374 43.5867 27.6452 43.5867C29.7604 43.5867 31.8567 44.0156 33.9834 44.0156C36.0689 44.0156 38.1658 44.0829 40.2501 44.0156C42.5968 43.9399 44.9452 43.1578 47.2673 43.1578C48.3137 43.1578 51.4232 42.7289 50.3769 42.7289" stroke="#CFDDD9" stroke-width="3" stroke-linecap="round"/>
<path d="M2.1258 8.63152C1.88721 8.6017 1.84997 8.13761 1.95901 8.46473C2.07953 8.82629 2.24737 9.23219 2.32833 9.59654C2.44547 10.1236 2.76915 8.61599 2.76915 8.30985C2.76915 8.01632 2.93481 6.70148 2.5547 6.70148C2.17268 6.70148 2.34025 8.1145 2.34025 8.41707C2.34025 9.8782 2.49976 11.1708 2.75723 12.5869C2.94575 13.6238 2.76915 14.864 2.76915 15.9109C2.76915 17.1815 2.9836 18.4726 2.9836 19.771C2.9836 22.3614 3.12482 24.9401 3.19805 27.503C3.27592 30.2286 3.84139 32.9338 3.84139 35.6521C3.84139 37.6575 3.62694 39.6969 3.62694 41.6567C3.62694 42.2992 3.48693 45.2651 2.9836 45.5168" stroke="#CFDDD9" stroke-width="3" stroke-linecap="round"/>
<path d="M50.1268 12.7628C49.9739 12.7819 49.979 15.1066 49.979 15.3866C49.979 15.8752 49.979 17.3411 49.979 16.8525C49.979 16.0929 49.979 15.3332 49.979 14.5736C49.979 13.5432 49.8312 12.519 49.8312 11.5063C49.8312 11.0648 49.7573 10.6429 49.7573 10.2128C49.7573 9.96961 49.8774 9.09031 49.6834 8.99332" stroke="#CFDDD9" stroke-width="3" stroke-linecap="round"/>
<path d="M9.40202 2.34134C8.58751 2.43184 8.73682 4.22697 8.73682 4.76397C8.73682 5.97743 8.78713 7.26411 9.01604 8.45951C9.13059 9.05771 9.24556 9.64494 9.34453 10.2498C9.40234 10.6031 9.44812 11.2274 9.69766 11.5063C10.0225 11.8694 10.5295 12.1194 10.5846 12.6149" stroke="#CFDDD9" stroke-width="3" stroke-linecap="round"/>
<path d="M18.1974 2.34135C18.4136 2.11574 18.3417 2.0755 18.1974 2.3126C18.0912 2.48711 18.0215 2.68161 17.9593 2.87515C17.79 3.40182 17.6637 3.96023 17.5486 4.50118C17.3206 5.57305 17.3105 6.57758 17.3105 7.67113C17.3105 8.66503 17.5349 9.52366 17.8279 10.4715C17.9489 10.8631 18.0939 11.1825 18.3617 11.5063C18.6415 11.8446 19.1536 12.0536 19.38 12.3932" stroke="#CFDDD9" stroke-width="3" stroke-linecap="round"/>
<path d="M28.0275 1.9718C27.7517 2.00245 27.426 2.59837 27.3295 2.81767C27.1421 3.24352 26.9734 3.62459 26.886 4.08647C26.6856 5.14557 26.7087 6.15681 26.7752 7.21946C26.8496 8.41015 27.3759 9.54821 27.658 10.6933C27.78 11.1886 27.9243 11.5962 28.2493 12.0072C28.3344 12.115 28.8398 12.5418 28.7666 12.6149" stroke="#CFDDD9" stroke-width="3" stroke-linecap="round"/>
<path d="M39.188 1.82397C38.9063 1.5735 38.4409 2.04342 38.2601 2.23869C37.731 2.81008 37.6963 3.3058 37.5251 4.02897C37.2519 5.18241 36.9334 6.38208 36.8968 7.57258C36.8775 8.20097 36.6751 8.8006 36.6751 9.43677C36.6751 9.91373 36.8362 10.4246 37.0036 10.8657C37.0849 11.0801 37.1382 11.2626 37.3403 11.3749C37.749 11.6019 37.7111 11.7636 37.4142 12.0976" stroke="#CFDDD9" stroke-width="3" stroke-linecap="round"/>
<path d="M4.85123 45.8528C4.21051 45.7727 4.93055 45.1313 5.18268 45.044C5.58832 44.9036 6.00466 44.8319 6.40242 44.633C7.37359 44.1475 8.47321 43.9708 9.45177 43.526C9.9495 43.2998 10.5926 43.5759 11.1157 43.4597C11.5952 43.3531 12.0413 43.347 12.5475 43.347C13.411 43.347 14.2294 43.705 15.113 43.705" stroke="#CFDDD9" stroke-width="3" stroke-linecap="round"/>
</svg>
