<svg width="35" height="27" viewBox="0 0 35 27" fill="none" xmlns="http://www.w3.org/2000/svg">
<path d="M5.59302 1L4.85709 1.97143V3.42857V4.88571L5.59302 5.85714" stroke="#F3D7B2" stroke-linecap="round"/>
<path d="M12.9524 1L12.2165 1.97143V3.42857V4.88571L12.9524 5.85714" stroke="#F3D7B2" stroke-linecap="round"/>
<path d="M21.7835 1L21.0476 1.97143V3.42857V4.88571L21.7835 5.85714" stroke="#F3D7B2" stroke-linecap="round"/>
<path d="M29.1429 1L28.407 1.97143V3.42857V4.88571L29.1429 5.85714" stroke="#F3D7B2" stroke-linecap="round"/>
<rect x="0.5" y="3.44287" width="33" height="22.3143" stroke="#F3D7B2" stroke-linejoin="round"/>
<path d="M0.669373 21.0212C4.78692 21.0212 8.8941 21.0969 13.0102 21.0969C14.5371 21.0969 16.0639 21.0969 17.5907 21.0969C18.9778 21.0969 20.4878 21.2615 21.8642 21.0591C22.9902 20.8935 24.1387 20.9455 25.2754 20.9455C26.5172 20.9455 27.7677 20.8698 29.0146 20.8698C29.8432 20.8698 30.6719 20.8698 31.5005 20.8698C32.0152 20.8698 32.5678 20.858 33.0694 20.9834C33.3539 21.0545 33.631 20.9868 33.9064 21.0969" stroke="#F3D7B2" stroke-width="0.5" stroke-linecap="round"/>
<path d="M0.820801 15.6458C7.74193 15.6458 14.6444 15.7972 21.5655 15.7972C23.8167 15.7972 26.0768 15.8729 28.3206 15.8729C28.9207 15.8729 29.5208 15.8729 30.1209 15.8729C30.5421 15.8729 30.9348 16.0055 31.3491 16.0243C31.9795 16.053 32.5882 16.1757 33.225 16.1757" stroke="#F3D7B2" stroke-width="0.5" stroke-linecap="round"/>
<path d="M0.820801 9.96745C3.7322 9.96745 6.72251 9.66923 9.58642 10.2703C11.384 10.6476 13.3708 10.4217 15.1974 10.4217C17.9168 10.4217 20.6262 10.1946 23.3447 10.1946C24.237 10.1946 25.1155 10.1681 25.9946 10.0053C27.2745 9.76829 28.5787 9.74032 29.8769 9.74032C30.7657 9.74032 31.6455 9.69637 32.5057 9.88754C32.9434 9.98479 33.2969 10.1946 33.755 10.1946" stroke="#F3D7B2" stroke-width="0.5" stroke-linecap="round"/>
<path d="M8.24047 3.53204C8.21813 3.97884 8.09116 4.43049 8.01334 4.8696C7.73115 6.46197 7.67537 8.10436 7.5759 9.71509C7.47075 11.4177 7.4561 13.0337 7.19735 14.7204C6.91213 16.5796 6.65055 18.4992 6.65055 20.3819C6.65055 20.9466 6.56402 21.4884 6.46127 22.0433C6.35889 22.5961 6.39444 23.1865 6.3435 23.7468C6.27652 24.4835 6.18904 25.2215 6.04486 25.9424" stroke="#F3D7B2" stroke-width="0.5" stroke-linecap="round"/>
<path d="M14.9788 4.21344C14.9561 4.71139 14.821 5.20512 14.7348 5.69401C14.4371 7.38351 14.3731 9.0671 14.3731 10.7792C14.3731 12.8449 14.6038 14.764 15.0503 16.773C15.2959 17.8784 15.3799 19.0157 15.5844 20.1295C15.6691 20.5903 15.9543 21.1231 15.963 21.5848C15.9757 22.2558 16.0134 22.884 15.9672 23.5533C15.9448 23.8778 15.8116 24.2284 15.8116 24.5418C15.8116 24.9077 15.8116 25.2736 15.8116 25.6396" stroke="#F3D7B2" stroke-width="0.5" stroke-linecap="round"/>
<path d="M23.9663 4.01007C23.5342 6.31461 23.3807 8.58992 23.3807 10.9312C23.3807 12.712 24.1518 14.3404 24.4054 16.0876C24.4928 16.6893 24.8271 17.6135 24.4949 18.1533C24.3846 18.3325 24.3853 18.7452 24.316 18.9585C24.1358 19.5128 24.0233 20.0783 23.9337 20.6542C23.7621 21.7578 23.8199 22.8828 23.8199 23.9969C23.8199 24.6054 23.6959 25.3552 23.9663 25.8959" stroke="#F3D7B2" stroke-width="0.5" stroke-linecap="round"/>
</svg>
