<svg width="109" height="84" viewBox="0 0 109 84" fill="none" xmlns="http://www.w3.org/2000/svg">
<path d="M49 9.35779H58.3578V17.7798H49V9.35779Z" fill="#EDFFFA"/>
<line x1="50.3766" y1="17.7091" x2="52.2482" y2="4.60822" stroke="#EDFFFA"/>
<line y1="-0.5" x2="13.2339" y2="-0.5" transform="matrix(-0.141421 -0.989949 -0.989949 0.141421 56.4863 17.7798)" stroke="#EDFFFA"/>
<mask id="path-4-inside-1_216_105" fill="white">
<path d="M54.8891 5.34047C55.4621 5.0667 55.9254 4.6067 56.2033 4.03561C56.4812 3.46451 56.5572 2.81608 56.4189 2.1962C56.2807 1.57632 55.9363 1.02165 55.4421 0.622763C54.9479 0.223879 54.333 0.0043615 53.6979 6.42621e-05C53.0628 -0.00423297 52.445 0.206944 51.9455 0.599104C51.4459 0.991264 51.0941 1.54123 50.9474 2.15918C50.8008 2.77713 50.868 3.42653 51.1381 4.00133C51.4083 4.57614 51.8653 5.04236 52.4346 5.32386L52.8662 4.45108C52.4943 4.26721 52.1958 3.96268 52.0193 3.58723C51.8429 3.21179 51.799 2.7876 51.8948 2.38397C51.9905 1.98034 52.2204 1.62111 52.5467 1.36496C52.873 1.10881 53.2765 0.970874 53.6913 0.973681C54.1062 0.976488 54.5078 1.11987 54.8306 1.38042C55.1534 1.64096 55.3783 2.00326 55.4686 2.40815C55.559 2.81305 55.5093 3.23659 55.3278 3.60962C55.1463 3.98265 54.8437 4.28311 54.4694 4.46193L54.8891 5.34047Z"/>
</mask>
<path d="M54.8891 5.34047C55.4621 5.0667 55.9254 4.6067 56.2033 4.03561C56.4812 3.46451 56.5572 2.81608 56.4189 2.1962C56.2807 1.57632 55.9363 1.02165 55.4421 0.622763C54.9479 0.223879 54.333 0.0043615 53.6979 6.42621e-05C53.0628 -0.00423297 52.445 0.206944 51.9455 0.599104C51.4459 0.991264 51.0941 1.54123 50.9474 2.15918C50.8008 2.77713 50.868 3.42653 51.1381 4.00133C51.4083 4.57614 51.8653 5.04236 52.4346 5.32386L52.8662 4.45108C52.4943 4.26721 52.1958 3.96268 52.0193 3.58723C51.8429 3.21179 51.799 2.7876 51.8948 2.38397C51.9905 1.98034 52.2204 1.62111 52.5467 1.36496C52.873 1.10881 53.2765 0.970874 53.6913 0.973681C54.1062 0.976488 54.5078 1.11987 54.8306 1.38042C55.1534 1.64096 55.3783 2.00326 55.4686 2.40815C55.559 2.81305 55.5093 3.23659 55.3278 3.60962C55.1463 3.98265 54.8437 4.28311 54.4694 4.46193L54.8891 5.34047Z" stroke="#EDFFFA" stroke-width="2" mask="url(#path-4-inside-1_216_105)"/>
<line x1="6.7431" y1="24.9449" x2="102.193" y2="24.9449" stroke="#EDFFFA" stroke-width="4"/>
<line x1="21.8441" y1="25.0734" x2="21.8441" y2="71.8624" stroke="#EDFFFA" stroke-width="4"/>
<rect x="5" y="13" width="98" height="61" rx="8" stroke="#EDFFFA" stroke-width="4" stroke-linejoin="round"/>
</svg>
