<svg width="7" height="6" viewBox="0 0 7 6" fill="none" xmlns="http://www.w3.org/2000/svg">
<mask id="path-1-inside-1_212_10" fill="white">
<path d="M4.88905 5.34047C5.46213 5.0667 5.92543 4.6067 6.20331 4.03561C6.48118 3.46451 6.55719 2.81608 6.41893 2.1962C6.28067 1.57632 5.93631 1.02165 5.4421 0.622763C4.94788 0.223879 4.33301 0.0043615 3.69792 6.42621e-05C3.06282 -0.00423297 2.44504 0.206944 1.94547 0.599104C1.4459 0.991264 1.09406 1.54123 0.947431 2.15918C0.800797 2.77713 0.868029 3.42653 1.13815 4.00133C1.40827 4.57614 1.86531 5.04236 2.43462 5.32386L2.86617 4.45108C2.4943 4.26721 2.19577 3.96268 2.01934 3.58723C1.8429 3.21179 1.79899 2.7876 1.89476 2.38397C1.99054 1.98034 2.22035 1.62111 2.54666 1.36496C2.87297 1.10881 3.2765 0.970874 3.69133 0.973681C4.10616 0.976488 4.50778 1.11987 4.83059 1.38042C5.15341 1.64096 5.37834 2.00326 5.46864 2.40815C5.55895 2.81305 5.5093 3.23659 5.3278 3.60962C5.1463 3.98265 4.84368 4.28311 4.46936 4.46193L4.88905 5.34047Z"/>
</mask>
<path d="M4.88905 5.34047C5.46213 5.0667 5.92543 4.6067 6.20331 4.03561C6.48118 3.46451 6.55719 2.81608 6.41893 2.1962C6.28067 1.57632 5.93631 1.02165 5.4421 0.622763C4.94788 0.223879 4.33301 0.0043615 3.69792 6.42621e-05C3.06282 -0.00423297 2.44504 0.206944 1.94547 0.599104C1.4459 0.991264 1.09406 1.54123 0.947431 2.15918C0.800797 2.77713 0.868029 3.42653 1.13815 4.00133C1.40827 4.57614 1.86531 5.04236 2.43462 5.32386L2.86617 4.45108C2.4943 4.26721 2.19577 3.96268 2.01934 3.58723C1.8429 3.21179 1.79899 2.7876 1.89476 2.38397C1.99054 1.98034 2.22035 1.62111 2.54666 1.36496C2.87297 1.10881 3.2765 0.970874 3.69133 0.973681C4.10616 0.976488 4.50778 1.11987 4.83059 1.38042C5.15341 1.64096 5.37834 2.00326 5.46864 2.40815C5.55895 2.81305 5.5093 3.23659 5.3278 3.60962C5.1463 3.98265 4.84368 4.28311 4.46936 4.46193L4.88905 5.34047Z" stroke="#EDFFFA" stroke-width="2" mask="url(#path-1-inside-1_212_10)"/>
</svg>
