<svg width="175" height="65" viewBox="0 0 175 65" fill="none" xmlns="http://www.w3.org/2000/svg">
<path d="M66.235 17H68.002V10.901H72.79V9.4H68.002V5.239H74.215V3.7H66.235V17ZM79.5343 11.414L80.7503 12.383C81.2823 11.813 81.8143 10.977 81.8143 9.932C81.8143 8.507 80.7883 7.386 79.1353 7.386C77.9763 7.386 77.1403 7.918 76.5133 8.602V7.5H74.8793V17H76.5133V10.331C77.0453 9.495 77.7863 8.773 78.8503 8.773C79.6293 8.773 80.1803 9.305 80.1803 10.008C80.1803 10.54 79.8953 11.053 79.5343 11.414ZM83.984 17H85.618V7.5H83.984V17ZM83.433 4.023C83.433 4.783 84.041 5.391 84.801 5.391C85.561 5.391 86.188 4.783 86.188 4.023C86.188 3.263 85.561 2.636 84.801 2.636C84.041 2.636 83.433 3.263 83.433 4.023ZM92.6223 17.133C94.6933 17.133 95.7573 16.24 96.7453 15.062L95.7383 14.15C94.9783 15.1 94.1613 15.765 92.7553 15.765C91.1213 15.765 89.7723 14.492 89.6393 12.611H96.8023V12.117C96.8023 9.115 95.2443 7.367 92.5843 7.367C90.0763 7.367 87.9863 9.21 87.9863 12.269C87.9863 15.233 89.8103 17.133 92.6223 17.133ZM89.6963 11.243C89.9813 9.495 91.0453 8.735 92.5843 8.735C94.0853 8.735 95.1873 9.837 95.1873 11.243H89.6963ZM106.059 11.889V17H107.693V11.281C107.693 8.811 106.496 7.386 103.912 7.386C102.506 7.386 101.157 8.07 100.245 8.906V7.5H98.6107V17H100.245V10.692C101.081 9.818 102.335 8.944 103.57 8.944C105.451 8.944 106.059 10.103 106.059 11.889ZM114.037 17.133C115.443 17.133 116.526 16.601 117.248 15.708V17H118.882V1.8H117.248V8.716C116.526 7.88 115.462 7.405 114.037 7.405C111.453 7.405 109.306 9.533 109.306 12.288C109.306 15.043 111.168 17.133 114.037 17.133ZM110.94 12.307C110.94 10.407 112.099 8.773 114.208 8.773C116.203 8.773 117.248 10.293 117.248 12.174C117.248 14.093 116.298 15.765 114.208 15.765C112.479 15.765 110.94 14.378 110.94 12.307ZM125.031 17.133C127.273 17.133 128.774 16.126 128.774 14.15C128.774 12.858 127.824 12.174 126.114 11.718L124.67 11.319C123.549 10.996 122.998 10.597 122.998 9.97C122.998 9.305 123.587 8.792 124.689 8.792C125.81 8.792 126.741 9.343 127.463 10.331L128.584 9.248C127.767 8.184 126.665 7.424 124.936 7.424C122.884 7.424 121.364 8.507 121.364 10.141C121.364 11.585 122.542 12.288 124.138 12.725L125.487 13.105C126.437 13.371 127.14 13.694 127.14 14.454C127.14 15.214 126.361 15.765 125.24 15.765C123.853 15.765 122.675 15.005 121.991 13.922L120.775 14.967C121.649 16.164 123.226 17.133 125.031 17.133ZM140.889 17.133C143.777 17.133 145.829 15.138 145.829 12.231C145.829 9.305 143.701 7.386 140.889 7.386C138.077 7.386 135.987 9.324 135.987 12.231C135.987 15.138 137.982 17.133 140.889 17.133ZM137.621 12.231C137.621 10.426 138.742 8.754 140.889 8.754C143.055 8.754 144.195 10.388 144.195 12.231C144.195 14.112 142.903 15.765 140.889 15.765C138.913 15.765 137.621 14.093 137.621 12.231ZM147.632 6.17V17H149.266V8.868H153.199V7.5H149.266V6.17C149.266 4.479 150.159 3.073 152.002 3.073C153.579 3.073 154.377 4.27 154.719 5.505L156.182 4.802C155.688 2.864 154.206 1.705 152.135 1.705C149.475 1.705 147.632 3.529 147.632 6.17ZM66.235 38H70.111C73.075 38 75.222 36.936 75.222 34.181C75.222 32.376 74.196 31.217 72.524 30.97C73.645 30.495 74.386 29.526 74.386 28.12C74.386 25.517 72.22 24.7 69.978 24.7H66.235V38ZM68.002 36.48V31.882H70.396C72.353 31.882 73.493 32.471 73.493 34.238C73.493 35.986 72.182 36.48 70.472 36.48H68.002ZM68.002 30.381V26.22H69.94C71.726 26.22 72.657 26.828 72.657 28.177C72.657 29.773 71.612 30.381 70.168 30.381H68.002ZM81.1926 38.133C83.2636 38.133 84.3276 37.24 85.3156 36.062L84.3086 35.15C83.5486 36.1 82.7316 36.765 81.3256 36.765C79.6916 36.765 78.3426 35.492 78.2096 33.611H85.3726V33.117C85.3726 30.115 83.8146 28.367 81.1546 28.367C78.6466 28.367 76.5566 30.21 76.5566 33.269C76.5566 36.233 78.3806 38.133 81.1926 38.133ZM78.2666 32.243C78.5516 30.495 79.6156 29.735 81.1546 29.735C82.6556 29.735 83.7576 30.837 83.7576 32.243H78.2666ZM91.437 38.133C92.843 38.133 93.926 37.601 94.648 36.708V38H96.282V22.8H94.648V29.716C93.926 28.88 92.862 28.405 91.437 28.405C88.853 28.405 86.706 30.533 86.706 33.288C86.706 36.043 88.568 38.133 91.437 38.133ZM88.34 33.307C88.34 31.407 89.499 29.773 91.608 29.773C93.603 29.773 94.648 31.293 94.648 33.174C94.648 35.093 93.698 36.765 91.608 36.765C89.879 36.765 88.34 35.378 88.34 33.307ZM113.451 32.889V38H115.085V32.281C115.085 29.811 113.888 28.386 111.304 28.386C109.879 28.386 108.492 29.089 107.257 30.248C106.725 29.051 105.623 28.386 103.856 28.386C102.45 28.386 101.101 29.07 100.189 29.906V28.5H98.555V38H100.189V31.692C101.025 30.818 102.279 29.944 103.514 29.944C105.395 29.944 106.003 31.103 106.003 32.889V38H107.637V32.281C107.637 32.091 107.637 31.901 107.618 31.73C108.454 30.818 109.708 29.944 110.962 29.944C112.843 29.944 113.451 31.103 113.451 32.889ZM117.735 38H119.369V28.5H117.735V38ZM117.184 25.023C117.184 25.783 117.792 26.391 118.552 26.391C119.312 26.391 119.939 25.783 119.939 25.023C119.939 24.263 119.312 23.636 118.552 23.636C117.792 23.636 117.184 24.263 117.184 25.023ZM129.66 32.889V38H131.294V32.281C131.294 29.811 130.097 28.386 127.513 28.386C126.107 28.386 124.758 29.07 123.846 29.906V28.5H122.212V38H123.846V31.692C124.682 30.818 125.936 29.944 127.171 29.944C129.052 29.944 129.66 31.103 129.66 32.889ZM137.258 38.133C139.5 38.133 141.001 37.126 141.001 35.15C141.001 33.858 140.051 33.174 138.341 32.718L136.897 32.319C135.776 31.996 135.225 31.597 135.225 30.97C135.225 30.305 135.814 29.792 136.916 29.792C138.037 29.792 138.968 30.343 139.69 31.331L140.811 30.248C139.994 29.184 138.892 28.424 137.163 28.424C135.111 28.424 133.591 29.507 133.591 31.141C133.591 32.585 134.769 33.288 136.365 33.725L137.714 34.105C138.664 34.371 139.367 34.694 139.367 35.454C139.367 36.214 138.588 36.765 137.467 36.765C136.08 36.765 134.902 36.005 134.218 34.922L133.002 35.967C133.876 37.164 135.453 38.133 137.258 38.133ZM146.984 38.228C148.409 38.228 149.587 37.544 150.233 35.739L148.979 35.036C148.599 36.29 147.915 36.86 147.098 36.86C146.224 36.86 145.654 36.29 145.654 35.169V29.868H149.302V28.5H145.654V25.688H144.02V28.5H141.854V29.868H144.02V35.169C144.02 37.259 145.065 38.228 146.984 38.228ZM155.82 38.133C157.891 38.133 158.955 37.24 159.943 36.062L158.936 35.15C158.176 36.1 157.359 36.765 155.953 36.765C154.319 36.765 152.97 35.492 152.837 33.611H160V33.117C160 30.115 158.442 28.367 155.782 28.367C153.274 28.367 151.184 30.21 151.184 33.269C151.184 36.233 153.008 38.133 155.82 38.133ZM152.894 32.243C153.179 30.495 154.243 29.735 155.782 29.735C157.283 29.735 158.385 30.837 158.385 32.243H152.894ZM166.463 32.414L167.679 33.383C168.211 32.813 168.743 31.977 168.743 30.932C168.743 29.507 167.717 28.386 166.064 28.386C164.905 28.386 164.069 28.918 163.442 29.602V28.5H161.808V38H163.442V31.331C163.974 30.495 164.715 29.773 165.779 29.773C166.558 29.773 167.109 30.305 167.109 31.008C167.109 31.54 166.824 32.053 166.463 32.414ZM66.235 59H74.291V57.442H68.021V45.7H66.235V59ZM75.9869 59H77.6209V49.5H75.9869V59ZM75.4359 46.023C75.4359 46.783 76.0439 47.391 76.8039 47.391C77.5639 47.391 78.1909 46.783 78.1909 46.023C78.1909 45.263 77.5639 44.636 76.8039 44.636C76.0439 44.636 75.4359 45.263 75.4359 46.023ZM85.1002 59.133C88.1212 59.133 90.0402 57.043 90.0402 54.288C90.0402 51.343 88.2352 49.405 85.4042 49.405C84.1122 49.405 82.8012 49.956 82.0982 50.868V43.8H80.4642V57.119C81.6422 58.259 82.9342 59.133 85.1002 59.133ZM82.0982 56.188V54.174C82.0982 52.312 83.3332 50.773 85.3282 50.773C87.2852 50.773 88.4062 52.217 88.4062 54.25C88.4062 56.207 87.2282 57.765 85.0812 57.765C83.7132 57.765 82.7442 57.043 82.0982 56.188ZM96.4932 53.414L97.7092 54.383C98.2412 53.813 98.7732 52.977 98.7732 51.932C98.7732 50.507 97.7472 49.386 96.0942 49.386C94.9352 49.386 94.0992 49.918 93.4722 50.602V49.5H91.8382V59H93.4722V52.331C94.0042 51.495 94.7452 50.773 95.8092 50.773C96.5882 50.773 97.1392 51.305 97.1392 52.008C97.1392 52.54 96.8542 53.053 96.4932 53.414ZM108.999 59.133C109.854 59.133 110.633 58.639 111.374 57.575L110.329 56.739C110.025 57.271 109.683 57.765 109.17 57.765C108.676 57.765 108.429 57.423 108.429 56.796V52.654C108.429 50.583 107.441 49.348 105.028 49.348C103.47 49.348 102.273 49.861 100.867 50.602L101.494 51.913C102.672 51.229 103.812 50.716 104.743 50.716C106.301 50.716 106.795 51.4 106.795 52.73V53.604C106.225 53.395 105.389 53.167 104.268 53.167C102.444 53.167 100.202 54.003 100.202 56.34C100.202 58.335 101.912 59.228 103.603 59.228C105.047 59.228 106.301 58.544 107.004 57.993C107.365 58.81 108.125 59.133 108.999 59.133ZM101.836 56.226C101.836 55.257 102.748 54.535 104.04 54.535C104.914 54.535 106.016 54.763 106.795 55.01V56.606C106.073 57.328 104.971 57.841 103.85 57.841C102.672 57.841 101.836 57.309 101.836 56.226ZM116.978 53.414L118.194 54.383C118.726 53.813 119.258 52.977 119.258 51.932C119.258 50.507 118.232 49.386 116.579 49.386C115.42 49.386 114.584 49.918 113.957 50.602V49.5H112.323V59H113.957V52.331C114.489 51.495 115.23 50.773 116.294 50.773C117.073 50.773 117.624 51.305 117.624 52.008C117.624 52.54 117.339 53.053 116.978 53.414ZM121.75 64.187C123.422 64.187 124.334 63.085 124.847 61.717L129.35 49.861L127.982 49.253L125.037 57.024L121.731 49.253L120.23 49.861L124.201 59.228L123.612 60.748C123.137 62.002 122.757 62.819 121.807 62.819C120.895 62.819 120.287 62.173 119.85 61.033L118.539 61.869C119.109 63.294 120.078 64.187 121.75 64.187Z" fill="#CFDDD9"/>
<path d="M1.17551 58.0322L56.8333 58.0322" stroke="#CFDDD9" stroke-linecap="round"/>
<path d="M1.1674 57.9048C1.1674 56.7255 1.1674 55.4426 1.1674 54.2718C1.1674 53.6427 1.1674 53.0136 1.1674 52.3845C1.1674 52.0623 1.02747 51.8019 1.0163 51.5352C1.00086 51.1665 1.0163 50.7897 1.0163 50.4205C1.0163 49.1895 1.3185 48.0908 1.3185 46.8641C1.3185 46.2378 1.35481 45.5829 1.23875 45.0122C1.16535 44.6512 0.786045 43.6287 1.1674 43.3608" stroke="#CFDDD9" stroke-linecap="round"/>
<path d="M1.21727 43.3945L56.8333 43.236" stroke="#CFDDD9" stroke-linecap="round"/>
<path d="M56.9258 43.578C56.9258 44.0877 56.9114 44.643 57.089 45.0922C57.2334 45.4574 57.1217 46.2849 57.1217 46.7033C57.1217 47.3469 56.9911 47.9361 56.9911 48.5794C56.9911 49.0995 56.9911 49.6195 56.9911 50.1395C56.9911 52.3267 56.9911 54.5139 56.9911 56.701" stroke="#CFDDD9" stroke-linecap="round"/>
<path d="M56.9019 56.7119C56.9019 56.9948 56.969 57.345 57.0229 57.6102C57.0415 57.7016 57.1255 57.9824 57.0046 57.9824C56.9036 57.9824 56.8074 58.1931 56.943 58.0979" stroke="#CFDDD9" stroke-linecap="round"/>
<path d="M57.4531 43.0793C57.2616 43.0793 57.0239 43.0238 56.8359 43.0825C56.7694 43.1032 56.7228 43.2417 56.6568 43.2472C56.5777 43.2537 56.497 43.2472 56.4178 43.2472" stroke="#CFDDD9" stroke-linecap="round"/>
<path d="M57.4531 43.1912C57.5502 43.0549 57.6098 42.9295 57.692 42.7996C57.8206 42.5963 57.6594 42.5284 57.6124 42.3799C57.5506 42.1845 57.1488 42.0296 57.0151 41.9043" stroke="#CFDDD9" stroke-linecap="round"/>
<path d="M57.0151 41.9043C56.8924 41.538 56.9297 41.1904 56.8536 40.8164C56.7898 40.5024 56.6966 40.1209 56.6966 39.7781C56.6966 39.4032 56.4975 39.1439 56.4975 38.743C56.4975 38.3654 56.5373 37.9866 56.5373 37.624C56.5373 36.8892 56.6169 36.0853 56.6169 35.4449C56.6169 35.0243 56.6169 34.6036 56.6169 34.1829C56.6169 33.9948 56.6136 33.8437 56.6656 33.6793C56.7487 33.4166 56.8319 33.478 56.9753 33.3436" stroke="#CFDDD9" stroke-linecap="round"/>
<path d="M56.9355 33.3996C57.1242 33.3996 57.3708 33.4556 57.5549 33.3872C57.7189 33.3262 57.8012 32.9913 57.9 32.8525C57.9759 32.7458 58.1021 32.5821 57.9619 32.4049C57.8306 32.2388 57.771 32.0002 57.5925 31.8609C57.4594 31.757 57.252 31.8562 57.1147 31.749C56.9995 31.6591 56.7678 31.721 56.6368 31.721C56.3116 31.721 55.9865 31.721 55.6613 31.721" stroke="#CFDDD9" stroke-linecap="round"/>
<path d="M11.7054 31.3991L55.6613 31.6651" stroke="#CFDDD9" stroke-linecap="round"/>
<path d="M11.5972 31.4065C11.5972 31.5093 11.58 31.7564 11.5174 31.8114C11.4478 31.8724 11.3977 31.9987 11.3977 32.1072C11.3977 32.3592 11.3407 32.7438 11.4974 32.92C11.594 33.0285 11.5838 33.3591 11.739 33.4214C11.8065 33.4485 11.8428 33.2163 11.8853 33.1567C11.9523 33.0625 12.089 32.9588 12.1778 32.9231C12.3391 32.8583 12.4735 32.7403 12.6344 32.6273C12.7865 32.5204 13.0029 32.5224 13.1219 32.3719C13.4084 32.0096 13.8257 32.0231 14.1901 32.0231" stroke="#CFDDD9" stroke-linecap="round"/>
<path d="M14.1901 32.0232L55.6299 32.2431" stroke="#CFDDD9" stroke-linecap="round"/>
<path d="M55.597 32.3151C55.7456 32.3151 55.8927 32.3076 56.0343 32.3765C56.0983 32.4076 56.2203 32.4281 56.2667 32.4802C56.2884 32.5046 56.4539 32.5546 56.4826 32.557C56.5627 32.5636 56.6413 32.6614 56.6739 32.7644C56.8331 33.2678 57.133 33.2137 57.4911 33.2137" stroke="#CFDDD9" stroke-linecap="round"/>
<path d="M11.6499 43.0136C11.5632 43.0136 11.3684 42.9401 11.3007 42.8661C11.1906 42.7458 11.2391 42.4121 11.2391 42.2342C11.2391 41.8166 11.3273 41.5507 11.5906 41.3393C11.7462 41.2144 12.1841 40.6402 12.1841 41.2239C12.1841 41.5779 12.5291 41.785 12.7091 41.9872C12.8919 42.1928 13.2795 42.2631 13.5194 42.2631C13.8313 42.2631 14.0566 42.4873 14.3617 42.5485C14.95 42.6666 15.5257 42.7827 16.1284 42.7827" stroke="#CFDDD9" stroke-linecap="round"/>
<path d="M16.2181 42.7724L56.2316 42.7724" stroke="#CFDDD9" stroke-linecap="round"/>
<path d="M56.2432 42.7515C56.4198 42.7515 56.593 42.7194 56.7124 42.5417C56.783 42.4367 56.7946 42.355 56.8203 42.2286C56.8367 42.148 56.9597 42.1105 57.0016 42.0937C57.0616 42.0696 56.9903 42.0321 56.9577 42.0321C56.8932 42.0321 56.9044 41.9918 56.9044 41.9122" stroke="#CFDDD9" stroke-linecap="round"/>
<path d="M12.2629 33.0892C12.2629 33.2547 12.2629 33.4201 12.2629 33.5856C12.2629 33.6665 12.2828 33.7349 12.2843 33.8113C12.286 33.8976 12.2924 33.9817 12.2956 34.0679C12.2979 34.1289 12.333 34.3124 12.3033 34.3646C12.284 34.3984 12.295 34.5295 12.295 34.5911C12.295 34.7274 12.2971 34.8608 12.3081 34.9964C12.3396 35.3851 12.3164 35.7739 12.3164 36.1665C12.3164 36.2941 12.3164 36.4217 12.3164 36.5493C12.3164 36.6585 12.3224 36.7711 12.3111 36.8794C12.3049 36.9386 12.295 36.9577 12.295 36.9973C12.295 37.1791 12.2961 37.3554 12.3164 37.5355C12.3277 37.6351 12.3378 37.7339 12.3378 37.8347C12.3378 37.9628 12.3378 38.091 12.3378 38.2192C12.3378 38.5882 12.3511 38.95 12.3753 39.3174C12.3929 39.5847 12.369 39.8344 12.4235 40.098C12.4742 40.3434 12.5305 40.6575 12.5305 40.8761C12.5305 41.1438 12.5305 41.4115 12.5305 41.6793" stroke="#CFDDD9" stroke-width="0.5"/>
<path d="M12.6804 41.8297C12.6804 41.7242 12.6805 41.6241 12.6917 41.5213C12.6984 41.4608 12.7275 41.4042 12.7334 41.3466C12.7476 41.2064 12.7447 41.0325 12.7447 40.8519C12.7447 40.8042 12.7447 40.7566 12.7447 40.7089C12.7447 40.5998 12.6818 40.4808 12.6537 40.378C12.6274 40.282 12.6162 40.1778 12.6162 40.0771C12.6162 39.9964 12.6056 39.924 12.5972 39.8439C12.5843 39.7216 12.5972 39.5914 12.5948 39.4678C12.5929 39.374 12.5767 39.2758 12.5734 39.182C12.5677 39.0223 12.5734 38.8604 12.5734 38.7006C12.5734 38.5231 12.5678 38.3437 12.574 38.1665C12.5835 37.8922 12.5735 37.6136 12.5894 37.3399C12.6044 37.0838 12.5734 36.8252 12.5734 36.5677C12.5734 36.457 12.5654 36.3502 12.5514 36.2417C12.5491 36.2239 12.5391 36.2265 12.5329 36.215C12.5244 36.199 12.5305 36.1539 12.5305 36.1356C12.5305 35.7235 12.5198 35.3141 12.5198 34.9011C12.5198 34.7568 12.5245 34.6211 12.5543 34.4849C12.5776 34.3786 12.5561 34.2625 12.5519 34.1573C12.5477 34.0506 12.532 33.9112 12.5044 33.8113C12.4741 33.702 12.4924 33.5839 12.4556 33.4803C12.4343 33.4205 12.4128 33.3149 12.4128 33.2472C12.4128 33.1498 12.3859 33.0461 12.4151 32.9538C12.4349 32.8913 12.3801 32.9745 12.3723 32.9989C12.359 33.0409 12.3402 33.0525 12.3271 33.0892" stroke="#CFDDD9" stroke-width="0.5"/>
<path d="M12.4397 33.3469H56.7203" stroke="#CFDDD9" stroke-width="0.5"/>
<path d="M12.4397 34.2607H56.602" stroke="#CFDDD9" stroke-width="0.5"/>
<path d="M12.3806 33.8453H56.602" stroke="#CFDDD9" stroke-width="0.5"/>
<path d="M17.3626 31.2106C17.2819 31.198 16.9097 31.0314 16.9046 30.9103C16.8944 30.6667 16.9657 30.4895 16.9657 30.2571C16.9657 29.6525 16.9657 29.0478 16.9657 28.4431C16.9657 27.9918 16.9657 27.5405 16.9657 27.0892C16.9657 26.6931 16.9736 26.3046 16.9979 25.9117C17.011 25.7008 17.0178 25.4302 17.059 25.2275C17.0877 25.0861 17.1266 24.7317 17.2558 24.7317C17.3622 24.7317 17.3321 24.8445 17.3321 24.9677C17.3321 25.0963 17.3626 25.212 17.3626 25.3324C17.3626 26.3876 17.21 27.3859 17.21 28.4431C17.21 28.9208 17.3016 29.3468 17.3016 29.8162C17.3016 30.0734 17.3321 30.3448 17.3321 30.5885C17.3321 30.7705 17.3847 31.107 17.4542 31.2535" stroke="#CFDDD9" stroke-width="0.5"/>
<path d="M57.1889 31.4063C57.1418 30.876 56.7074 30.5715 56.7074 30.0047C56.7074 29.6341 56.7074 29.2636 56.7074 28.893C56.7074 28.5549 56.845 28.3028 56.845 27.9747C56.845 27.2803 57.0644 26.6589 57.1202 25.9931C57.1591 25.5279 57.5043 24.4465 56.9138 24.4465" stroke="#CFDDD9" stroke-width="0.5"/>
<path d="M57.1399 31.4117C57.0037 31.4117 56.9358 31.4439 56.8236 31.5228" stroke="#CFDDD9" stroke-width="0.5"/>
<path d="M57.1794 31.4116C57.1794 31.7405 57.1003 31.3938 57.1003 31.245" stroke="#CFDDD9" stroke-width="0.5"/>
<path d="M17.2825 24.7306H23.8438" stroke="#CFDDD9" stroke-width="0.5"/>
<path d="M12.5061 35.4115H56.2066" stroke="#CFDDD9" stroke-width="0.5"/>
<path d="M12.3572 36.4109H56.3555" stroke="#CFDDD9" stroke-width="0.5"/>
<path d="M12.655 37.196H56.5788" stroke="#CFDDD9" stroke-width="0.5"/>
<path d="M12.5061 39.2661H56.281" stroke="#CFDDD9" stroke-width="0.5"/>
<path d="M12.5061 40.0513H56.6533" stroke="#CFDDD9" stroke-width="0.5"/>
<path d="M23.5476 24.7568C24.5413 24.7568 25.535 24.7568 26.5288 24.7568C27.8808 24.7568 29.2213 24.6618 30.5743 24.6618C31.0543 24.6618 31.5397 24.7093 32.0127 24.7093C32.1289 24.7093 32.2704 24.7352 32.384 24.7594C32.5064 24.7855 32.3443 24.8517 32.4087 24.8517C33.2255 24.8517 34.0424 24.8517 34.8592 24.8517C35.5363 24.8517 36.208 24.9466 36.8861 24.9466C37.3985 24.9466 37.911 24.9466 38.4234 24.9466C38.8537 24.9466 39.0098 24.9941 39.3668 24.9941C40.2862 24.9941 41.202 24.9466 42.1225 24.9466C43.285 24.9466 44.019 24.9941 45.1312 24.9941C45.7615 24.9941 46.4084 25.0361 47.0371 24.9915C47.4835 24.9597 47.9548 24.8517 48.3984 24.8517" stroke="#CFDDD9" stroke-width="0.5"/>
<path d="M48.0519 24.8043C48.9399 24.8043 49.8026 24.7819 50.6784 24.712C51.9247 24.6124 53.1538 24.472 54.4077 24.472C55.0393 24.472 55.6583 24.4982 56.2805 24.5195C56.4987 24.5269 56.7135 24.5669 56.9378 24.5669C56.9782 24.5669 57.1507 24.5066 57.0341 24.4746C56.9559 24.4532 56.8459 24.472 56.7646 24.472" stroke="#CFDDD9" stroke-width="0.5"/>
<path d="M5.82167 43.1867C5.82167 47.9769 6.01832 52.7373 6.01832 57.5166" stroke="#CFDDD9" stroke-width="0.5"/>
<path d="M6.60827 43.9409C6.60827 45.9522 6.60827 47.9634 6.60827 49.9746C6.60827 50.7542 6.44169 51.7542 6.6192 52.52C6.99727 54.1513 7.00157 56.0072 7.00157 57.7052" stroke="#CFDDD9" stroke-width="0.5"/>
<path d="M6.51968 43.5829V44.1753" stroke="#CFDDD9" stroke-width="0.5"/>
<path d="M52.2382 43.5829C52.2382 46.6774 52.7325 49.6768 52.7325 52.7647C52.7325 53.6004 52.9796 54.3512 52.9796 55.1934C52.9796 56.0227 52.9796 56.8521 52.9796 57.6814" stroke="#CFDDD9" stroke-width="0.5"/>
<path d="M51.2497 43.8198C51.2497 48.5076 51.744 53.108 51.744 57.7998" stroke="#CFDDD9" stroke-width="0.5"/>
<path d="M51.1261 43.5829V44.1753" stroke="#CFDDD9" stroke-width="0.5"/>
<path d="M34 24.5442L48.1794 24.4465" stroke="#CFDDD9" stroke-width="0.5"/>
<path d="M47.6208 24.607C47.1835 24.607 46.7697 24.6515 46.3352 24.6848C46.0229 24.7088 45.7119 24.7879 45.4005 24.8258C45.0635 24.8668 44.7023 24.8342 44.3628 24.8342C43.9452 24.8342 43.5394 24.7963 43.1188 24.7963" stroke="#CFDDD9" stroke-width="0.5"/>
<path d="M34.6813 24.4725C33.8872 24.4725 34.0489 23.5142 34.0489 22.9904C34.0489 22.3275 33.8908 21.6719 33.8908 20.9861C33.8908 19.6757 34.0855 18.0412 33.9742 17.028C33.8352 15.7622 33.9698 14.4152 33.9698 13.1415C33.9698 11.8657 33.9698 10.5899 33.9698 9.31403" stroke="#CFDDD9" stroke-width="0.5"/>
<path d="M47.8912 24.4244C47.8997 24.3595 48.027 24.2241 48.0792 24.184C48.1283 24.1464 48.1419 23.9653 48.1419 23.9036C48.1419 23.6971 48.0977 23.4431 48.1442 23.2425C48.2476 22.7967 48.1837 22.2833 48.1837 21.8203C48.1837 20.605 48.1837 19.3898 48.1837 18.1746" stroke="#CFDDD9" stroke-width="0.5"/>
<path d="M48.1419 18.3348C48.1419 17.211 48.2673 16.147 48.2673 15.0185C48.2673 14.7484 48.2673 14.4784 48.2673 14.2083C48.2673 13.9481 48.1837 13.7092 48.1837 13.4471C48.1837 12.953 48.1837 12.4589 48.1837 11.9648" stroke="#CFDDD9" stroke-width="0.5"/>
<path d="M48.1837 11.8847V12.0049" stroke="#CFDDD9" stroke-width="0.5"/>
<path d="M48.1837 17.814C48.1837 18.053 48.2255 18.2695 48.2255 18.4951" stroke="#CFDDD9" stroke-width="0.5"/>
<path d="M48.1419 12.2453C48.1419 11.2449 48.1837 10.2278 48.1837 9.24057" stroke="#CFDDD9" stroke-width="0.5"/>
<path d="M33.9063 9.48644C33.9441 9.19669 34.2156 9.13664 34.3535 8.90521C34.4815 8.69054 34.6218 8.541 34.6218 8.28586" stroke="#CFDDD9" stroke-width="0.5"/>
<path d="M34.5324 8.41451C34.5324 8.26253 34.6143 8.07518 34.756 7.99525C34.8891 7.92019 34.9435 7.98573 35.0914 7.98573C35.4715 7.98573 35.8516 7.98573 36.2318 7.98573C37.3349 7.98573 38.4379 7.98573 39.541 7.98573" stroke="#CFDDD9" stroke-width="0.5"/>
<path d="M39.7199 7.98572C40.4768 7.98572 41.2338 7.98572 41.9907 7.98572C42.4113 7.98572 42.8832 7.98801 43.3 7.9214C43.6932 7.85856 44.1031 7.88449 44.5 7.83327C44.8503 7.78805 45.1764 7.77133 45.531 7.77133C45.837 7.77133 46.2107 7.77443 46.4726 7.89997" stroke="#CFDDD9" stroke-width="0.5"/>
<path d="M46.249 7.77133C46.5442 7.77133 46.79 7.89997 47.0763 7.89997C47.1816 7.89997 47.5513 8.03911 47.5906 8.11436" stroke="#CFDDD9" stroke-width="0.5"/>
<path d="M48.2167 9.48642C48.2007 9.34896 48.077 9.17848 48.0353 9.03858C48.0025 8.92849 47.927 8.77714 47.8688 8.67174C47.8127 8.57 47.7039 8.46398 47.6775 8.35015C47.6528 8.24331 47.6706 7.98569 47.5459 7.98569" stroke="#CFDDD9" stroke-width="0.5"/>
<path d="M39.4963 7.98569H39.9435" stroke="#CFDDD9" stroke-width="0.5"/>
<path d="M47.5906 8.20011C47.4679 8.20011 47.3223 8.22609 47.3223 8.07147" stroke="#CFDDD9" stroke-width="0.5"/>
<path d="M34 6.229L42 24.4465" stroke="#CFDDD9"/>
<path d="M48 4.31137L38 24.4465" stroke="#CFDDD9"/>
<path d="M34 4.31137L44 24.4465" stroke="#CFDDD9" stroke-width="0.5"/>
<path d="M47.9229 2.22588C47.4872 2.96784 47.6551 3.96909 47.9738 4.14114C48.2925 4.31318 48.8875 4.55333 49.6093 3.324C50.3311 2.09467 50.1257 0.483553 49.807 0.311506C49.6093 1.3047 48.6447 0.996553 47.9229 2.22588Z" fill="#CFDDD9"/>
<path d="M34.0825 4.44576C34.6303 5.37869 34.6482 6.51401 34.3746 6.66168C34.1011 6.80936 33.5761 6.99093 32.6684 5.4452C31.7608 3.89947 31.6702 2.06202 31.9438 1.91435C32.3092 3.10012 33.1749 2.90003 34.0825 4.44576Z" fill="#CFDDD9"/>
<path d="M34.3672 2.75598C34.8936 4.01511 35.0038 5.15751 34.6133 5.30759C34.2228 5.45767 33.4795 4.5586 32.9531 3.29947C32.4267 2.04033 32.7071 1.61446 32.7071 0.747848C32.8612 1.61446 33.8409 1.49684 34.3672 2.75598Z" fill="#CFDDD9"/>
<path d="M16.209 51.3945V55H14.9458V47.4844H16.209V50.9121H19.9858V47.4844H21.249V55H19.9858V51.3945H16.209ZM25.686 55.127C25.2417 55.127 24.8312 55.0508 24.4546 54.8984C24.0822 54.7419 23.7585 54.5303 23.4834 54.2637C23.2126 53.9928 23.001 53.6797 22.8486 53.3242C22.6963 52.9645 22.6201 52.5815 22.6201 52.1753C22.6201 51.7479 22.6963 51.348 22.8486 50.9756C23.001 50.599 23.2126 50.271 23.4834 49.9917C23.7585 49.7124 24.0822 49.4924 24.4546 49.3315C24.8312 49.1665 25.2417 49.084 25.686 49.084C26.1261 49.084 26.5324 49.158 26.9048 49.3062C27.2814 49.4543 27.6051 49.6574 27.876 49.9155C28.151 50.1737 28.3647 50.4762 28.5171 50.8232C28.6694 51.166 28.7456 51.5363 28.7456 51.9341C28.7456 52.3742 28.6694 52.7889 28.5171 53.1782C28.3647 53.5633 28.151 53.8997 27.876 54.1875C27.6051 54.4753 27.2814 54.7038 26.9048 54.873C26.5324 55.0423 26.1261 55.127 25.686 55.127ZM25.9019 54.6953C26.1304 54.6953 26.3377 54.6382 26.5239 54.5239C26.7144 54.4054 26.8773 54.2489 27.0127 54.0542C27.1523 53.8553 27.2603 53.6268 27.3364 53.3687C27.4126 53.1063 27.4507 52.8291 27.4507 52.5371C27.4507 52.1182 27.4147 51.7246 27.3428 51.3564C27.2708 50.9883 27.1545 50.6688 26.9937 50.3979C26.8328 50.1229 26.6213 49.9071 26.3589 49.7505C26.1007 49.5939 25.7834 49.5156 25.4067 49.5156C25.2121 49.5156 25.0238 49.5728 24.8418 49.687C24.6641 49.797 24.5054 49.9494 24.3657 50.144C24.2261 50.3387 24.1139 50.5651 24.0293 50.8232C23.9489 51.0814 23.9087 51.3564 23.9087 51.6484C23.9087 52.0716 23.9531 52.4694 24.042 52.8418C24.1309 53.21 24.2599 53.5316 24.4292 53.8066C24.6027 54.0817 24.8122 54.2996 25.0576 54.4604C25.3073 54.617 25.5887 54.6953 25.9019 54.6953ZM29.8564 49.2046H31.0054V50.29C31.1535 50.1292 31.3185 49.9769 31.5005 49.833C31.6867 49.6849 31.8771 49.5558 32.0718 49.4458C32.2707 49.3358 32.4696 49.249 32.6685 49.1855C32.8674 49.1178 33.0535 49.084 33.2271 49.084C33.3963 49.084 33.5698 49.1157 33.7476 49.1792C33.9253 49.2384 34.0882 49.3231 34.2363 49.4331C34.3844 49.5431 34.5114 49.6722 34.6172 49.8203C34.7272 49.9684 34.7992 50.1313 34.833 50.3091C34.9303 50.1398 35.0615 49.9811 35.2266 49.833C35.3958 49.6849 35.582 49.5558 35.7852 49.4458C35.9925 49.3358 36.2083 49.249 36.4326 49.1855C36.6611 49.1178 36.8854 49.084 37.1055 49.084C37.3213 49.084 37.5244 49.1326 37.7148 49.23C37.9095 49.3273 38.0788 49.4585 38.2227 49.6235C38.3665 49.7886 38.4808 49.9811 38.5654 50.2012C38.6501 50.4212 38.6924 50.6561 38.6924 50.9058V55H37.5371V51.0708C37.5371 50.9058 37.5096 50.7513 37.4546 50.6074C37.3996 50.4635 37.3234 50.3366 37.2261 50.2266C37.133 50.1165 37.0229 50.0298 36.896 49.9663C36.7733 49.9028 36.6421 49.8711 36.5024 49.8711C36.3459 49.8711 36.1851 49.8923 36.02 49.9346C35.855 49.9769 35.6984 50.0361 35.5503 50.1123C35.4022 50.1885 35.2668 50.2773 35.144 50.3789C35.0213 50.4762 34.924 50.582 34.8521 50.6963V55H33.7031V51.0708C33.7031 50.9058 33.6735 50.7513 33.6143 50.6074C33.5592 50.4635 33.4831 50.3366 33.3857 50.2266C33.2926 50.1165 33.1826 50.0298 33.0557 49.9663C32.9287 49.9028 32.7954 49.8711 32.6558 49.8711C32.5119 49.8711 32.3617 49.8944 32.2051 49.9409C32.0485 49.9832 31.894 50.0425 31.7417 50.1187C31.5936 50.1948 31.4561 50.2837 31.3291 50.3853C31.2021 50.4826 31.0942 50.5863 31.0054 50.6963V55H29.8564V49.2046ZM42.5835 55.127C42.1899 55.127 41.8218 55.055 41.479 54.9111C41.1362 54.763 40.8358 54.562 40.5776 54.3081C40.3195 54.0542 40.1164 53.758 39.9683 53.4194C39.8201 53.0767 39.7461 52.7106 39.7461 52.3213C39.7461 51.8558 39.8138 51.4263 39.9492 51.0327C40.0846 50.6349 40.2772 50.2922 40.5269 50.0044C40.7765 49.7166 41.0749 49.4924 41.4219 49.3315C41.7731 49.1665 42.1646 49.084 42.5962 49.084C42.9771 49.084 43.3241 49.1517 43.6372 49.2871C43.9546 49.4183 44.2254 49.5981 44.4497 49.8267C44.6782 50.0509 44.856 50.3112 44.9829 50.6074C45.1099 50.8994 45.1733 51.2062 45.1733 51.5278H40.8506C40.8506 51.9172 40.8993 52.279 40.9966 52.6133C41.0981 52.9434 41.2399 53.229 41.4219 53.4702C41.6038 53.7114 41.8197 53.9019 42.0693 54.0415C42.319 54.1769 42.5941 54.2446 42.8945 54.2446C43.1442 54.2446 43.3833 54.2044 43.6118 54.124C43.8446 54.0436 44.054 53.9378 44.2402 53.8066C44.4307 53.6712 44.5915 53.5189 44.7227 53.3496C44.8538 53.1803 44.9469 53.0047 45.002 52.8228L45.3257 52.9688C45.241 53.265 45.1077 53.5443 44.9258 53.8066C44.7438 54.069 44.528 54.2975 44.2783 54.4922C44.0329 54.6868 43.7642 54.8413 43.4722 54.9556C43.1802 55.0698 42.884 55.127 42.5835 55.127ZM43.7324 51.0645C43.7324 50.8444 43.6922 50.6413 43.6118 50.4551C43.5356 50.2646 43.4299 50.0996 43.2944 49.96C43.159 49.8203 43.0003 49.7124 42.8184 49.6362C42.6364 49.5558 42.4417 49.5156 42.2344 49.5156C42.0609 49.5156 41.8937 49.5558 41.7329 49.6362C41.5763 49.7124 41.4367 49.8203 41.314 49.96C41.1912 50.0996 41.0876 50.2646 41.0029 50.4551C40.9225 50.6413 40.8739 50.8444 40.8569 51.0645H43.7324Z" fill="#CFDDD9"/>
</svg>
