<svg width="59" height="59" viewBox="0 0 59 59" fill="none" xmlns="http://www.w3.org/2000/svg">
<path d="M1.17554 58.0322L56.8333 58.0322" stroke="#CFDDD9" stroke-linecap="round"/>
<path d="M1.1674 57.9048C1.1674 56.7255 1.1674 55.4426 1.1674 54.2718C1.1674 53.6427 1.1674 53.0136 1.1674 52.3845C1.1674 52.0623 1.02747 51.8019 1.0163 51.5352C1.00086 51.1665 1.0163 50.7897 1.0163 50.4205C1.0163 49.1895 1.3185 48.0908 1.3185 46.8641C1.3185 46.2378 1.35481 45.5829 1.23875 45.0122C1.16535 44.6512 0.786045 43.6287 1.1674 43.3608" stroke="#CFDDD9" stroke-linecap="round"/>
<path d="M1.21729 43.3945L56.8333 43.236" stroke="#CFDDD9" stroke-linecap="round"/>
<path d="M56.9258 43.578C56.9258 44.0877 56.9114 44.643 57.089 45.0922C57.2334 45.4574 57.1217 46.2849 57.1217 46.7033C57.1217 47.3469 56.9911 47.9361 56.9911 48.5794C56.9911 49.0995 56.9911 49.6195 56.9911 50.1395C56.9911 52.3267 56.9911 54.5139 56.9911 56.701" stroke="#CFDDD9" stroke-linecap="round"/>
<path d="M56.9019 56.7119C56.9019 56.9948 56.969 57.3451 57.0229 57.6103C57.0415 57.7016 57.1256 57.9824 57.0046 57.9824C56.9036 57.9824 56.8074 58.1932 56.943 58.0979" stroke="#CFDDD9" stroke-linecap="round"/>
<path d="M57.4531 43.0793C57.2616 43.0793 57.0239 43.0238 56.8359 43.0825C56.7694 43.1032 56.7228 43.2417 56.6568 43.2472C56.5777 43.2537 56.497 43.2472 56.4178 43.2472" stroke="#CFDDD9" stroke-linecap="round"/>
<path d="M57.4531 43.1912C57.5502 43.0549 57.6098 42.9295 57.6921 42.7996C57.8206 42.5963 57.6594 42.5284 57.6124 42.3799C57.5506 42.1845 57.1488 42.0296 57.0151 41.9043" stroke="#CFDDD9" stroke-linecap="round"/>
<path d="M57.0151 41.9043C56.8925 41.538 56.9297 41.1904 56.8537 40.8164C56.7898 40.5024 56.6966 40.1209 56.6966 39.7781C56.6966 39.4032 56.4975 39.1439 56.4975 38.743C56.4975 38.3654 56.5373 37.9866 56.5373 37.624C56.5373 36.8892 56.617 36.0853 56.617 35.4449C56.617 35.0243 56.617 34.6036 56.617 34.1829C56.617 33.9948 56.6136 33.8437 56.6656 33.6793C56.7487 33.4166 56.8319 33.478 56.9753 33.3436" stroke="#CFDDD9" stroke-linecap="round"/>
<path d="M56.9355 33.3996C57.1242 33.3996 57.3708 33.4556 57.5549 33.3872C57.7188 33.3262 57.8012 32.9913 57.9 32.8525C57.9759 32.7458 58.1021 32.5821 57.9619 32.4049C57.8306 32.2388 57.771 32.0002 57.5925 31.8609C57.4594 31.757 57.2519 31.8562 57.1147 31.749C56.9995 31.6591 56.7678 31.721 56.6368 31.721C56.3116 31.721 55.9864 31.721 55.6613 31.721" stroke="#CFDDD9" stroke-linecap="round"/>
<path d="M11.7053 31.3991L55.6613 31.6651" stroke="#CFDDD9" stroke-linecap="round"/>
<path d="M11.5971 31.4065C11.5971 31.5093 11.58 31.7564 11.5174 31.8113C11.4478 31.8724 11.3977 31.9986 11.3977 32.1072C11.3977 32.3592 11.3407 32.7438 11.4974 32.92C11.594 33.0285 11.5838 33.359 11.739 33.4213C11.8065 33.4484 11.8428 33.2163 11.8853 33.1566C11.9523 33.0624 12.0889 32.9587 12.1778 32.9231C12.3391 32.8583 12.4735 32.7403 12.6343 32.6272C12.7865 32.5203 13.0029 32.5223 13.1219 32.3719C13.4084 32.0095 13.8256 32.0231 14.1901 32.0231" stroke="#CFDDD9" stroke-linecap="round"/>
<path d="M14.1901 32.0232L55.6299 32.2431" stroke="#CFDDD9" stroke-linecap="round"/>
<path d="M55.597 32.3151C55.7456 32.3151 55.8927 32.3076 56.0344 32.3765C56.0983 32.4076 56.2203 32.4281 56.2667 32.4802C56.2884 32.5046 56.4539 32.5546 56.4826 32.557C56.5627 32.5636 56.6414 32.6614 56.6739 32.7644C56.8331 33.2678 57.133 33.2137 57.4911 33.2137" stroke="#CFDDD9" stroke-linecap="round"/>
<path d="M11.6499 43.0136C11.5632 43.0136 11.3684 42.9401 11.3007 42.8661C11.1906 42.7458 11.2391 42.4121 11.2391 42.2342C11.2391 41.8166 11.3273 41.5507 11.5906 41.3393C11.7462 41.2144 12.1841 40.6402 12.1841 41.2239C12.1841 41.5779 12.5291 41.785 12.7091 41.9872C12.8919 42.1928 13.2795 42.2631 13.5194 42.2631C13.8314 42.2631 14.0567 42.4873 14.3617 42.5485C14.95 42.6666 15.5257 42.7827 16.1284 42.7827" stroke="#CFDDD9" stroke-linecap="round"/>
<path d="M16.2181 42.7724L56.2316 42.7724" stroke="#CFDDD9" stroke-linecap="round"/>
<path d="M56.2432 42.7515C56.4198 42.7515 56.593 42.7194 56.7124 42.5417C56.783 42.4367 56.7946 42.355 56.8203 42.2286C56.8367 42.148 56.9597 42.1105 57.0016 42.0937C57.0616 42.0696 56.9903 42.0321 56.9577 42.0321C56.8932 42.0321 56.9044 41.9918 56.9044 41.9122" stroke="#CFDDD9" stroke-linecap="round"/>
<path d="M12.2629 33.0892C12.2629 33.2547 12.2629 33.4202 12.2629 33.5856C12.2629 33.6665 12.2828 33.735 12.2843 33.8113C12.286 33.8976 12.2924 33.9818 12.2956 34.0679C12.2979 34.1289 12.333 34.3125 12.3033 34.3646C12.284 34.3985 12.295 34.5295 12.295 34.5911C12.295 34.7274 12.2971 34.8608 12.3081 34.9964C12.3396 35.3851 12.3164 35.7739 12.3164 36.1665C12.3164 36.2941 12.3164 36.4217 12.3164 36.5493C12.3164 36.6585 12.3224 36.7712 12.3111 36.8794C12.3049 36.9386 12.295 36.9577 12.295 36.9973C12.295 37.1791 12.2961 37.3554 12.3164 37.5355C12.3277 37.6351 12.3378 37.7339 12.3378 37.8347C12.3378 37.9629 12.3378 38.091 12.3378 38.2192C12.3378 38.5882 12.3511 38.95 12.3753 39.3174C12.3929 39.5847 12.369 39.8344 12.4235 40.098C12.4742 40.3434 12.5305 40.6575 12.5305 40.8761C12.5305 41.1438 12.5305 41.4115 12.5305 41.6793" stroke="#CFDDD9" stroke-width="0.5"/>
<path d="M12.6805 41.8297C12.6805 41.7242 12.6805 41.6241 12.6918 41.5213C12.6984 41.4608 12.7275 41.4042 12.7334 41.3466C12.7476 41.2064 12.7447 41.0325 12.7447 40.8519C12.7447 40.8042 12.7447 40.7566 12.7447 40.7089C12.7447 40.5998 12.6818 40.4808 12.6537 40.378C12.6274 40.282 12.6162 40.1778 12.6162 40.0771C12.6162 39.9964 12.6056 39.924 12.5972 39.8439C12.5843 39.7216 12.5972 39.5914 12.5948 39.4678C12.5929 39.374 12.5767 39.2758 12.5734 39.182C12.5677 39.0223 12.5734 38.8604 12.5734 38.7006C12.5734 38.5231 12.5678 38.3437 12.574 38.1665C12.5835 37.8922 12.5735 37.6136 12.5895 37.3399C12.6044 37.0838 12.5734 36.8252 12.5734 36.5677C12.5734 36.457 12.5654 36.3502 12.5514 36.2417C12.5491 36.2239 12.5391 36.2265 12.5329 36.215C12.5244 36.199 12.5306 36.1539 12.5306 36.1356C12.5306 35.7235 12.5199 35.3141 12.5199 34.9011C12.5199 34.7568 12.5245 34.6211 12.5544 34.4849C12.5776 34.3786 12.5561 34.2625 12.552 34.1573C12.5478 34.0506 12.532 33.9112 12.5044 33.8113C12.4741 33.702 12.4925 33.5839 12.4556 33.4803C12.4343 33.4205 12.4128 33.3149 12.4128 33.2472C12.4128 33.1498 12.386 33.0461 12.4152 32.9538C12.4349 32.8913 12.3801 32.9745 12.3724 32.9989C12.3591 33.0409 12.3402 33.0525 12.3271 33.0892" stroke="#CFDDD9" stroke-width="0.5"/>
<path d="M12.4398 33.3469H56.7203" stroke="#CFDDD9" stroke-width="0.5"/>
<path d="M12.4398 34.2607H56.602" stroke="#CFDDD9" stroke-width="0.5"/>
<path d="M12.3806 33.8453H56.602" stroke="#CFDDD9" stroke-width="0.5"/>
<path d="M17.3626 31.2106C17.2819 31.198 16.9097 31.0314 16.9046 30.9103C16.8944 30.6667 16.9657 30.4895 16.9657 30.2571C16.9657 29.6525 16.9657 29.0478 16.9657 28.4431C16.9657 27.9918 16.9657 27.5405 16.9657 27.0892C16.9657 26.6931 16.9736 26.3046 16.9979 25.9117C17.011 25.7008 17.0178 25.4302 17.059 25.2275C17.0878 25.0861 17.1266 24.7317 17.2558 24.7317C17.3623 24.7317 17.3321 24.8445 17.3321 24.9677C17.3321 25.0963 17.3626 25.212 17.3626 25.3324C17.3626 26.3876 17.21 27.3859 17.21 28.4431C17.21 28.9208 17.3016 29.3468 17.3016 29.8162C17.3016 30.0734 17.3321 30.3448 17.3321 30.5885C17.3321 30.7705 17.3848 31.107 17.4543 31.2535" stroke="#CFDDD9" stroke-width="0.5"/>
<path d="M57.1889 31.4063C57.1418 30.876 56.7074 30.5716 56.7074 30.0047C56.7074 29.6341 56.7074 29.2636 56.7074 28.893C56.7074 28.5549 56.845 28.3028 56.845 27.9747C56.845 27.2804 57.0644 26.6589 57.1202 25.9931C57.1591 25.5279 57.5043 24.4465 56.9138 24.4465" stroke="#CFDDD9" stroke-width="0.5"/>
<path d="M57.1399 31.4117C57.0037 31.4117 56.9358 31.4439 56.8236 31.5228" stroke="#CFDDD9" stroke-width="0.5"/>
<path d="M57.1794 31.4116C57.1794 31.7405 57.1003 31.3938 57.1003 31.245" stroke="#CFDDD9" stroke-width="0.5"/>
<path d="M17.2825 24.7306H23.8438" stroke="#CFDDD9" stroke-width="0.5"/>
<path d="M12.506 35.4115H56.2066" stroke="#CFDDD9" stroke-width="0.5"/>
<path d="M12.3572 36.4109H56.3555" stroke="#CFDDD9" stroke-width="0.5"/>
<path d="M12.655 37.196H56.5788" stroke="#CFDDD9" stroke-width="0.5"/>
<path d="M12.506 39.2661H56.281" stroke="#CFDDD9" stroke-width="0.5"/>
<path d="M12.506 40.0513H56.6532" stroke="#CFDDD9" stroke-width="0.5"/>
<path d="M23.5475 24.7568C24.5413 24.7568 25.535 24.7568 26.5288 24.7568C27.8808 24.7568 29.2213 24.6618 30.5743 24.6618C31.0543 24.6618 31.5396 24.7093 32.0127 24.7093C32.1289 24.7093 32.2704 24.7352 32.384 24.7594C32.5064 24.7855 32.3443 24.8517 32.4087 24.8517C33.2255 24.8517 34.0423 24.8517 34.8592 24.8517C35.5363 24.8517 36.208 24.9466 36.8861 24.9466C37.3985 24.9466 37.911 24.9466 38.4234 24.9466C38.8537 24.9466 39.0098 24.9941 39.3667 24.9941C40.2862 24.9941 41.202 24.9466 42.1225 24.9466C43.285 24.9466 44.019 24.9941 45.1312 24.9941C45.7615 24.9941 46.4084 25.0361 47.0371 24.9915C47.4835 24.9597 47.9547 24.8517 48.3984 24.8517" stroke="#CFDDD9" stroke-width="0.5"/>
<path d="M48.0519 24.8043C48.94 24.8043 49.8026 24.7819 50.6784 24.712C51.9248 24.6124 53.1538 24.472 54.4077 24.472C55.0393 24.472 55.6583 24.4982 56.2806 24.5195C56.4987 24.5269 56.7135 24.5669 56.9379 24.5669C56.9782 24.5669 57.1507 24.5066 57.0341 24.4746C56.9559 24.4532 56.8459 24.472 56.7646 24.472" stroke="#CFDDD9" stroke-width="0.5"/>
<path d="M5.82166 43.1867C5.82166 47.9769 6.01831 52.7373 6.01831 57.5166" stroke="#CFDDD9" stroke-width="0.5"/>
<path d="M6.60826 43.9409C6.60826 45.9522 6.60826 47.9634 6.60826 49.9746C6.60826 50.7542 6.44167 51.7541 6.61918 52.52C6.99725 54.1513 7.00156 56.0071 7.00156 57.7052" stroke="#CFDDD9" stroke-width="0.5"/>
<path d="M6.51965 43.5829V44.1752" stroke="#CFDDD9" stroke-width="0.5"/>
<path d="M52.2382 43.5829C52.2382 46.6774 52.7325 49.6768 52.7325 52.7647C52.7325 53.6004 52.9796 54.3512 52.9796 55.1934C52.9796 56.0227 52.9796 56.852 52.9796 57.6814" stroke="#CFDDD9" stroke-width="0.5"/>
<path d="M51.2497 43.8198C51.2497 48.5076 51.7439 53.108 51.7439 57.7998" stroke="#CFDDD9" stroke-width="0.5"/>
<path d="M51.1262 43.5829V44.1752" stroke="#CFDDD9" stroke-width="0.5"/>
<path d="M34 24.5442L48.1794 24.4465" stroke="#CFDDD9" stroke-width="0.5"/>
<path d="M47.6208 24.607C47.1835 24.607 46.7697 24.6515 46.3352 24.6848C46.0229 24.7088 45.7119 24.7879 45.4005 24.8258C45.0635 24.8668 44.7023 24.8342 44.3628 24.8342C43.9452 24.8342 43.5394 24.7963 43.1188 24.7963" stroke="#CFDDD9" stroke-width="0.5"/>
<path d="M34.6812 24.4725C33.8872 24.4725 34.0488 23.5142 34.0488 22.9904C34.0488 22.3275 33.8907 21.6719 33.8907 20.9861C33.8907 19.6757 34.0854 18.0412 33.9742 17.028C33.8352 15.7622 33.9698 14.4152 33.9698 13.1415C33.9698 11.8657 33.9698 10.5899 33.9698 9.31403" stroke="#CFDDD9" stroke-width="0.5"/>
<path d="M47.8912 24.4244C47.8996 24.3595 48.027 24.2241 48.0792 24.184C48.1283 24.1464 48.1419 23.9653 48.1419 23.9036C48.1419 23.6971 48.0977 23.4431 48.1442 23.2425C48.2475 22.7967 48.1837 22.2833 48.1837 21.8203C48.1837 20.605 48.1837 19.3898 48.1837 18.1746" stroke="#CFDDD9" stroke-width="0.5"/>
<path d="M48.1419 18.3348C48.1419 17.211 48.2673 16.147 48.2673 15.0185C48.2673 14.7484 48.2673 14.4784 48.2673 14.2083C48.2673 13.9481 48.1837 13.7092 48.1837 13.4471C48.1837 12.953 48.1837 12.4589 48.1837 11.9648" stroke="#CFDDD9" stroke-width="0.5"/>
<path d="M48.1837 11.8847V12.0049" stroke="#CFDDD9" stroke-width="0.5"/>
<path d="M48.1837 17.814C48.1837 18.053 48.2254 18.2696 48.2254 18.4951" stroke="#CFDDD9" stroke-width="0.5"/>
<path d="M48.1419 12.2453C48.1419 11.2449 48.1837 10.2278 48.1837 9.24057" stroke="#CFDDD9" stroke-width="0.5"/>
<path d="M33.9063 9.48644C33.9441 9.19669 34.2156 9.13664 34.3535 8.90521C34.4814 8.69054 34.6218 8.541 34.6218 8.28586" stroke="#CFDDD9" stroke-width="0.5"/>
<path d="M34.5324 8.41451C34.5324 8.26253 34.6143 8.07518 34.756 7.99525C34.8891 7.92019 34.9435 7.98573 35.0914 7.98573C35.4715 7.98573 35.8516 7.98573 36.2318 7.98573C37.3349 7.98573 38.4379 7.98573 39.541 7.98573" stroke="#CFDDD9" stroke-width="0.5"/>
<path d="M39.7199 7.98572C40.4768 7.98572 41.2338 7.98572 41.9907 7.98572C42.4113 7.98572 42.8832 7.98801 43.3 7.9214C43.6932 7.85856 44.1031 7.88449 44.5 7.83327C44.8503 7.78805 45.1764 7.77133 45.531 7.77133C45.837 7.77133 46.2107 7.77443 46.4726 7.89997" stroke="#CFDDD9" stroke-width="0.5"/>
<path d="M46.249 7.77133C46.5442 7.77133 46.79 7.89997 47.0763 7.89997C47.1817 7.89997 47.5514 8.03911 47.5906 8.11436" stroke="#CFDDD9" stroke-width="0.5"/>
<path d="M48.2167 9.48642C48.2008 9.34896 48.077 9.17848 48.0353 9.03858C48.0025 8.92849 47.9271 8.77714 47.8689 8.67174C47.8127 8.57 47.704 8.46398 47.6776 8.35015C47.6528 8.24331 47.6706 7.98569 47.5459 7.98569" stroke="#CFDDD9" stroke-width="0.5"/>
<path d="M39.4963 7.98569H39.9435" stroke="#CFDDD9" stroke-width="0.5"/>
<path d="M47.5906 8.20011C47.4679 8.20011 47.3223 8.22609 47.3223 8.07147" stroke="#CFDDD9" stroke-width="0.5"/>
<path d="M34 6.229L42 24.4465" stroke="#CFDDD9"/>
<path d="M48 4.31137L38 24.4465" stroke="#CFDDD9"/>
<path d="M34 4.31137L44 24.4465" stroke="#CFDDD9" stroke-width="0.5"/>
<path d="M47.9229 2.22588C47.4872 2.96784 47.6551 3.96909 47.9738 4.14113C48.2925 4.31318 48.8875 4.55333 49.6093 3.324C50.3311 2.09467 50.1257 0.483553 49.807 0.311506C49.6093 1.3047 48.6447 0.996553 47.9229 2.22588Z" fill="#CFDDD9"/>
<path d="M34.0825 4.44576C34.6303 5.37869 34.6482 6.51401 34.3747 6.66168C34.1011 6.80936 33.5761 6.99093 32.6685 5.4452C31.7608 3.89947 31.6702 2.06202 31.9438 1.91435C32.3092 3.10012 33.1749 2.90003 34.0825 4.44576Z" fill="#CFDDD9"/>
<path d="M34.3672 2.75598C34.8936 4.01511 35.0038 5.15751 34.6133 5.30759C34.2228 5.45767 33.4795 4.5586 32.9531 3.29947C32.4267 2.04033 32.7071 1.61446 32.7071 0.747848C32.8612 1.61446 33.8409 1.49684 34.3672 2.75598Z" fill="#CFDDD9"/>
</svg>
