<svg width="109" height="85" viewBox="0 0 109 85" fill="none" xmlns="http://www.w3.org/2000/svg">
<path d="M76.852 29.4247L96.4025 68.9247C97.3894 70.9187 95.9386 73.2555 93.7138 73.2555H14.7484C12.5342 73.2555 11.083 70.939 12.049 68.9467L31.2005 29.4467C31.702 28.4123 32.7504 27.7555 33.8999 27.7555H39.4683C40.4291 27.7555 41.3318 28.2157 41.8962 28.9933L47.7314 37.0329C50.4732 40.8105 56.0741 40.8972 58.9316 37.2064L65.3476 28.919C65.9158 28.1851 66.7917 27.7555 67.7198 27.7555H74.1633C75.304 27.7555 76.346 28.4024 76.852 29.4247Z" stroke="#EDFFFA" stroke-width="4"/>
<mask id="path-2-inside-1_216_148" fill="white">
<path d="M48.0985 63.458C47.472 64.254 47.6041 65.4228 48.4931 65.9085C50.2351 66.8604 52.2133 67.3287 54.2195 67.2462C56.8405 67.1384 59.3366 66.0975 61.2577 64.3113C63.1788 62.5251 64.3983 60.1112 64.6963 57.505C64.9942 54.8988 64.351 52.2719 62.8827 50.0982C61.4143 47.9245 59.2175 46.347 56.6885 45.6504C54.1595 44.9538 51.4649 45.1839 49.0906 46.2992C46.7163 47.4145 44.8188 49.3416 43.7402 51.7328C42.9147 53.5631 42.6106 55.5731 42.8432 57.5446C42.9619 58.5506 43.9969 59.1096 44.9693 58.8256V58.8256C45.9416 58.5415 46.4744 57.5174 46.4399 56.505C46.402 55.39 46.6187 54.2727 47.0841 53.241C47.8029 51.6472 49.0677 50.3628 50.6502 49.6194C52.2327 48.876 54.0288 48.7227 55.7144 49.187C57.4001 49.6513 58.8643 50.7027 59.843 52.1515C60.8217 53.6003 61.2504 55.3512 61.0518 57.0883C60.8532 58.8254 60.0403 60.4343 58.7599 61.6249C57.4795 62.8154 55.8157 63.5092 54.0688 63.5811C52.938 63.6276 51.8205 63.4115 50.8003 62.96C49.874 62.5501 48.725 62.662 48.0985 63.458V63.458Z"/>
</mask>
<path d="M48.4931 65.9085L46.5751 69.4187L48.4931 65.9085ZM46.5751 69.4187C48.9506 70.7167 51.6481 71.3554 54.3839 71.2428L54.0551 63.2496C52.7786 63.3021 51.5197 63.0041 50.411 62.3983L46.5751 69.4187ZM54.3839 71.2428C57.958 71.0958 61.3618 69.6764 63.9814 67.2407L58.534 61.3819C57.3115 62.5186 55.723 63.181 54.0551 63.2496L54.3839 71.2428ZM63.9814 67.2407C66.6011 64.8049 68.2641 61.5132 68.6704 57.9593L60.7222 57.0506C60.5325 58.7091 59.7565 60.2452 58.534 61.3819L63.9814 67.2407ZM68.6704 57.9593C69.0767 54.4054 68.1996 50.8233 66.1973 47.8591L59.5681 52.3372C60.5025 53.7205 60.9118 55.3921 60.7222 57.0506L68.6704 57.9593ZM66.1973 47.8591C64.195 44.895 61.1994 42.7439 57.7508 41.7941L55.6263 49.5068C57.2357 49.9501 58.6337 50.9539 59.5681 52.3372L66.1973 47.8591ZM57.7508 41.7941C54.3021 40.8442 50.6276 41.1579 47.3899 42.6788L50.7913 49.9197C52.3022 49.21 54.017 49.0635 55.6263 49.5068L57.7508 41.7941ZM47.3899 42.6788C44.1523 44.1996 41.5647 46.8274 40.094 50.0882L47.3865 53.3774C48.0728 51.8557 49.2804 50.6294 50.7913 49.9197L47.3899 42.6788ZM40.094 50.0882C38.9682 52.5841 38.5536 55.3251 38.8708 58.0133L46.8157 57.0759C46.6676 55.8212 46.8612 54.5421 47.3865 53.3774L40.094 50.0882ZM50.4376 56.3689C50.4204 55.8621 50.5189 55.3544 50.7303 54.8856L43.4378 51.5964C42.7186 53.191 42.3836 54.918 42.4422 56.6411L50.4376 56.3689ZM50.7303 54.8856C51.057 54.1614 51.6318 53.5777 52.3509 53.2399L48.9495 45.999C46.5037 47.1479 44.5489 49.1331 43.4378 51.5964L50.7303 54.8856ZM52.3509 53.2399C53.07 52.9021 53.8862 52.8324 54.6522 53.0434L56.7766 45.3306C54.1714 44.613 51.3954 44.85 48.9495 45.999L52.3509 53.2399ZM54.6522 53.0434C55.4182 53.2543 56.0836 53.7321 56.5283 54.3905L63.1576 49.9125C61.645 47.6732 59.3819 46.0482 56.7766 45.3306L54.6522 53.0434ZM56.5283 54.3905C56.9731 55.0489 57.1679 55.8446 57.0777 56.6339L65.0259 57.5427C65.3328 54.8579 64.6702 52.1517 63.1576 49.9125L56.5283 54.3905ZM57.0777 56.6339C56.9874 57.4233 56.618 58.1545 56.0362 58.6955L61.4836 64.5543C63.4626 62.7142 64.7189 60.2275 65.0259 57.5427L57.0777 56.6339ZM56.0362 58.6955C55.4543 59.2365 54.6982 59.5518 53.9044 59.5844L54.2332 67.5777C56.9332 67.4666 59.5046 66.3943 61.4836 64.5543L56.0362 58.6955ZM53.9044 59.5844C53.3906 59.6056 52.8828 59.5075 52.419 59.3022L49.1816 66.6179C50.7582 67.3156 52.4854 67.6496 54.2332 67.5777L53.9044 59.5844ZM52.419 59.3022C50.3853 58.4022 47.0533 58.3185 44.9553 60.984L51.2416 65.9319C50.8414 66.4404 50.3223 66.6506 49.9626 66.7076C49.6323 66.7599 49.374 66.703 49.1816 66.6179L52.419 59.3022ZM46.0908 62.6651C49.3469 61.714 50.5133 58.5917 50.4376 56.3689L42.4422 56.6411C42.4351 56.4307 42.4788 56.1699 42.6507 55.883C42.8378 55.5706 43.2265 55.1675 43.8477 54.986L46.0908 62.6651ZM38.8708 58.0133C39.3337 61.936 43.2095 63.5068 46.0908 62.6651L43.8477 54.986C44.4009 54.8244 45.0335 54.883 45.5984 55.2118C46.201 55.5626 46.716 56.2312 46.8157 57.0759L38.8708 58.0133ZM50.411 62.3983C51.1574 62.8062 51.5853 63.5335 51.6858 64.2235C51.7799 64.8704 51.5981 65.4791 51.2416 65.9319L44.9553 60.984C43.0988 63.3428 43.1089 67.5248 46.5751 69.4187L50.411 62.3983Z" fill="#EDFFFA" mask="url(#path-2-inside-1_216_148)"/>
<path d="M102.893 33.6409C102.672 34.0587 102.467 34.4204 102.293 34.716L95.5895 34.4784C92.4182 34.3659 89.5405 32.5917 88.0156 29.8088L86.4706 26.9891C84.3643 23.1452 80.3299 20.7555 75.9468 20.7555H54.6542C54.141 20.7555 53.6319 20.7262 53.0979 20.673C50.6174 20.4257 43.2444 19.8027 36.1087 20.3341C32.5525 20.5989 28.926 21.1585 25.9594 22.2633C23.052 23.3461 20.3139 25.1335 19.3603 28.1532C18.2011 31.8239 14.6953 33.5851 10.805 34.3562C8.91684 34.7304 7.0948 34.8341 5.73401 34.8415C5.38996 34.8433 5.07777 34.839 4.80415 34.8316C4.72117 34.5823 4.62972 34.2975 4.53334 33.9815C4.13675 32.6809 3.66233 30.8683 3.34713 28.8181C2.7026 24.6257 2.78959 19.8635 5.0535 16.3357C5.09218 16.2754 5.3456 15.9878 6.15677 15.5873C6.91941 15.2107 7.98093 14.828 9.34727 14.4558C12.0747 13.7128 15.7756 13.0755 20.1863 12.5588C28.9919 11.5272 40.3817 11.0038 51.9265 11C63.4695 10.9963 75.1051 11.512 84.3999 12.5432C89.0516 13.0593 93.072 13.6997 96.1834 14.4549C97.7393 14.8326 99.0308 15.2302 100.043 15.6391C101.081 16.0585 101.703 16.4418 102.023 16.7337C105.835 20.208 105.933 24.6655 104.881 28.6318C104.357 30.6078 103.564 32.3666 102.893 33.6409Z" stroke="#EDFFFA" stroke-width="4"/>
</svg>
