<svg width="19" height="60" viewBox="0 0 19 60" fill="none" xmlns="http://www.w3.org/2000/svg">
<path d="M7.66394 50.4889C7.66394 48.9709 7.24742 47.4742 7.24742 45.9072C7.24742 44.5882 7.24742 43.2693 7.24742 41.9503C7.24742 39.019 7.45568 36.0792 7.45568 33.2034C7.45568 31.933 7.66394 30.7416 7.66394 29.4547C7.66394 28.5019 7.57705 26.9683 7.20114 26.1225C6.74865 25.1044 7.03916 23.4861 7.03916 22.3738C7.03916 21.2961 6.8309 20.2018 6.8309 19.0417C6.8309 17.973 6.95908 16.799 6.8309 15.7095C6.6867 14.4838 6.00048 13.7914 5.16482 13.0021C3.22764 11.1726 1.49924 8.89564 3.03594 6.12957C3.94107 4.50034 4.75922 3.62227 6.41438 2.75113C7.8308 2.00565 9.3356 2.17263 10.9498 2.17263C13.6125 2.17263 16.4432 4.45302 17.0241 7.06674C17.3797 8.66707 17.054 9.65768 16.6076 11.2204C16.3433 12.1452 14.7129 12.9691 14.0159 13.5112C13.7067 13.7517 12.8306 14.0225 12.4539 14.0434C11.8198 14.0787 12.0374 15.1696 12.0374 15.6054C12.0374 16.7855 12.0374 17.9657 12.0374 19.1458C12.0374 24.487 12.4539 29.8503 12.4539 35.1818C12.4539 38.0975 12.4539 41.0131 12.4539 43.9287C12.4539 46.729 12.841 49.3198 12.2341 52.0509C11.8706 53.6865 10.7488 55.1941 10.3829 56.8409C10.3512 56.9836 10.059 58.727 9.79282 58.1945C9.56516 57.7392 9.4696 57.069 9.34159 56.621C9.03965 55.5642 8.83481 54.2612 8.39285 53.2889C8.09897 52.6423 8.28872 51.6226 8.28872 50.9055C8.28872 50.2252 8.28625 48.8315 7.8722 50.2807" stroke="#CFDDD9" stroke-width="3" stroke-linecap="round"/>
</svg>
