<svg width="109" height="85" viewBox="0 0 109 85" fill="none" xmlns="http://www.w3.org/2000/svg">
<path d="M78.738 41.8746C76.9545 46.7232 75.172 49.7708 73.3611 52.095C71.8918 53.9808 70.4001 55.4065 68.7178 57.0144C68.2752 57.4374 67.8193 57.8731 67.3472 58.3331C63.2648 62.3109 58.8113 67.3734 53.7043 79.517C48.9063 67.7225 44.893 62.9854 40.8491 59.1116C40.2575 58.5449 39.6845 58.0131 39.1218 57.4908C37.5453 56.0274 36.0497 54.6391 34.4513 52.7692C32.3403 50.2997 30.0711 46.9978 27.5174 41.7605C21.5756 22.5713 33.5018 1.99997 53.6747 1.99997C63.7677 1.99997 71.2246 7.59267 75.6051 15.4504C80.0052 23.3434 81.2022 33.3859 78.738 41.8746Z" stroke="#EDFFFA" stroke-width="4"/>
<path d="M65 31.5C65 37.674 59.9788 43 54 43C48.1324 43 43.0386 37.3132 43.0002 31.0711C43.4554 25.1617 47.8879 21 54 21C60.2146 21 65 25.2391 65 31.5Z" stroke="#EDFFFA" stroke-width="4"/>
</svg>
