<svg width="17" height="27" viewBox="0 0 17 27" fill="none" xmlns="http://www.w3.org/2000/svg">
<circle cx="8.64527" cy="4.64527" r="3.64527" fill="#F3D7B2"/>
<line x1="8.62451" y1="7.24902" x2="8.62451" y2="24.9546" stroke="#F3D7B2"/>
<path d="M8.69965 25.9863C8.69965 25.9031 8.71732 25.8386 8.74602 25.7611C8.75337 25.7412 8.76692 25.7102 8.77832 25.6923C8.79566 25.6651 8.80033 25.6308 8.81559 25.6025C8.83698 25.5627 8.86271 25.5258 8.88433 25.4869C8.89784 25.4626 8.93816 25.4136 8.93816 25.3863C8.93816 25.3541 8.96117 25.3219 8.96839 25.2894C8.97951 25.2394 8.99716 25.1709 9.02926 25.1308C9.04142 25.1156 9.04996 25.0561 9.04996 25.036C9.04996 25 9.04996 24.9639 9.04996 24.9279" stroke="#F3D7B2" stroke-width="0.2" stroke-linecap="round"/>
<path d="M8.6412 25.9758C8.63846 25.9512 8.62079 25.9225 8.61069 25.9003C8.60468 25.8871 8.60598 25.8713 8.59961 25.8578C8.59369 25.8453 8.58882 25.8344 8.58831 25.8203C8.58454 25.7148 8.52503 25.6206 8.49112 25.5235C8.45276 25.4137 8.38117 25.3206 8.34014 25.2112C8.3205 25.1588 8.28765 25.1122 8.27007 25.0595C8.26201 25.0353 8.25064 25.0197 8.25064 24.9933C8.25064 24.9767 8.23843 24.9608 8.23843 24.9424C8.23843 24.9316 8.2404 24.9196 8.23527 24.9099C8.23031 24.9005 8.22623 24.925 8.22623 24.9302" stroke="#F3D7B2" stroke-width="0.2" stroke-linecap="round"/>
<path d="M8.67784 25.4754C8.67784 25.5004 8.664 25.5283 8.65953 25.5531C8.65482 25.5793 8.64936 25.6588 8.64936 25.6322C8.64936 25.5629 8.64386 25.4959 8.6306 25.4277C8.61556 25.3502 8.59502 25.2739 8.57613 25.1973C8.56744 25.1621 8.55941 25.1235 8.54562 25.0898C8.54155 25.0798 8.53131 25.0801 8.52256 25.076C8.49919 25.065 8.48179 25.0481 8.46628 25.0278C8.45431 25.0122 8.44454 24.997 8.43577 24.9795C8.43367 24.9753 8.42943 24.9634 8.42967 24.9736C8.43017 24.9952 8.43821 25.0141 8.44684 25.0337C8.4781 25.1045 8.5181 25.1719 8.5585 25.2378C8.60902 25.3202 8.6608 25.4018 8.71174 25.4839C8.72534 25.5059 8.75943 25.544 8.7626 25.571C8.7639 25.5821 8.75246 25.5975 8.74903 25.6078C8.74109 25.6316 8.73233 25.6556 8.72259 25.6788C8.71867 25.6881 8.7094 25.7106 8.69502 25.7063C8.6858 25.7036 8.69004 25.678 8.69004 25.6718C8.69004 25.628 8.69619 25.5879 8.70948 25.5459C8.72482 25.4974 8.74855 25.4545 8.75197 25.4035C8.75861 25.3046 8.7762 25.202 8.80712 25.1078C8.81529 25.083 8.82154 25.0546 8.83334 25.031C8.85395 24.9898 8.88779 24.951 8.91765 24.9162C8.98501 24.8376 8.78376 25.0772 8.69908 25.1368C8.68763 25.1448 8.67469 25.1511 8.66066 25.153C8.642 25.1556 8.64224 25.1415 8.63693 25.1266C8.62777 25.1008 8.62068 25.0737 8.62156 25.0461C8.62203 25.0313 8.62518 25.0172 8.63083 25.0034C8.63496 24.9933 8.64981 24.9766 8.64981 24.9655C8.64981 24.9641 8.55632 24.9281 8.54629 24.9243C8.53196 24.9189 8.52858 24.9139 8.51307 24.9139C8.50083 24.9139 8.48514 24.9286 8.47442 24.9343C8.45165 24.9463 8.43111 24.9803 8.43871 25.0066C8.44809 25.0391 8.5175 25.0239 8.54155 25.0301C8.56786 25.0369 8.59176 25.0482 8.61885 25.0522C8.64425 25.056 8.6685 25.0556 8.69411 25.0563C8.71377 25.0568 8.73198 25.0664 8.75129 25.0683C8.79094 25.0723 8.84106 25.0566 8.87719 25.0757C8.89906 25.0873 8.93096 25.0618 8.952 25.0504C8.96377 25.0441 8.97022 25.0447 8.9789 25.0328C8.98569 25.0235 9.0017 25.0083 9.01145 25.0034" stroke="#F3D7B2" stroke-width="0.2" stroke-linecap="round"/>
<path d="M8.6534 26.0531C8.6534 26.0706 8.64785 26.1004 8.6647 26.0734C8.67114 26.0631 8.70019 26.0535 8.71126 26.049C8.7251 26.0434 8.73671 26.0397 8.72257 26.0531C8.70664 26.0681 8.68862 26.0883 8.66561 26.0897C8.65557 26.0903 8.65205 26.0989 8.64436 26.0856C8.63904 26.0764 8.6241 26.0545 8.61453 26.049C8.59247 26.0364 8.59326 25.9991 8.58853 25.9778C8.58684 25.9702 8.58122 25.9656 8.5761 25.9591C8.56707 25.9474 8.56007 25.9299 8.55667 25.9157C8.55521 25.9096 8.55499 25.8987 8.54966 25.8944C8.54158 25.8879 8.53949 25.858 8.53949 25.8476C8.53949 25.8336 8.53485 25.8 8.52728 25.7886" stroke="#F3D7B2" stroke-width="0.1" stroke-linecap="round"/>
<path d="M9.04398 25.0685C9.07576 25.0367 9.06579 24.9803 9.10907 24.9587" stroke="#F3D7B2" stroke-width="0.1" stroke-linecap="round"/>
<path d="M8.28027 8.53925C8.28027 8.50444 8.29055 8.45356 8.27592 8.42137C8.26105 8.38867 8.28 8.34912 8.25611 8.31993C8.24066 8.30104 8.21711 8.29291 8.20201 8.27403C8.18605 8.25409 8.15664 8.26297 8.1392 8.24553C8.12898 8.23531 8.16664 8.29197 8.15321 8.28659C8.13319 8.27858 8.12394 8.25732 8.10829 8.24167C8.07864 8.21202 8.14642 8.31638 8.16722 8.35278C8.1804 8.37584 8.18842 8.41357 8.20394 8.43297C8.21872 8.45145 8.19584 8.36723 8.19331 8.35712C8.17951 8.30194 8.13325 8.26681 8.08413 8.25278C8.03893 8.23987 8.00519 8.1942 7.96336 8.18225C7.92541 8.1714 7.96994 8.17974 7.98655 8.18466C8.04124 8.20087 8.09345 8.21816 8.14983 8.22621" stroke="#F3D7B2" stroke-width="0.1" stroke-linecap="round"/>
<path d="M9.00201 8.40876C9.00201 8.34286 9.00987 8.27888 9.06095 8.23291C9.08241 8.2136 9.12898 8.17562 9.15853 8.17398C9.17844 8.17287 9.19427 8.16528 9.21505 8.16528C9.23697 8.16528 9.19766 8.18316 9.19138 8.18944C9.18029 8.20053 9.16631 8.20776 9.15419 8.21746C9.14568 8.22426 9.14255 8.24956 9.13245 8.26093C9.12654 8.26758 9.10788 8.30342 9.1194 8.28267C9.12843 8.26642 9.13491 8.2546 9.14791 8.24161C9.16077 8.22875 9.22062 8.19401 9.17786 8.23678C9.16684 8.2478 9.16535 8.26184 9.15419 8.27301C9.14222 8.28498 9.16589 8.24005 9.17786 8.22808C9.20009 8.20585 9.25347 8.21347 9.28027 8.20007" stroke="#F3D7B2" stroke-width="0.1" stroke-linecap="round"/>
</svg>
